<?xml version="1.0" encoding="UTF-8"?>
<svg xmlns="http://www.w3.org/2000/svg" width="1024" height="1024" viewBox="0 0 1024 1024" role="img" aria-labelledby="title desc">
  <title id="title">AgentVouch logo</title>
  <desc id="desc">Orange lobster inside an orange shield outline on a transparent background.</desc>
  <defs>
    <linearGradient id="agentvouch-orange" x1="512" y1="60" x2="512" y2="964" gradientUnits="userSpaceOnUse">
      <stop offset="0" stop-color="#ff4018"/>
      <stop offset="0.5" stop-color="#fe4e24"/>
      <stop offset="1" stop-color="#ff3919"/>
    </linearGradient>
  </defs>
  <path d="M 513.00 935.40 L 508.00 934.63 L 487.00 922.53 L 446.00 896.48 L 403.00 864.57 L 364.00 830.67 L 334.58 801.00 L 302.46 764.00 L 278.48 732.00 L 249.44 686.00 L 227.48 644.00 L 207.47 597.00 L 190.43 546.00 L 180.51 508.00 L 172.38 469.00 L 164.45 419.00 L 158.37 357.00 L 156.24 300.00 L 157.40 235.00 L 159.40 199.00 L 162.00 184.78 L 261.00 167.08 L 307.93 155.00 L 346.00 143.07 L 381.00 130.04 L 419.00 113.12 L 455.98 94.00 L 512.00 61.37 L 562.00 91.14 L 602.00 112.09 L 642.08 130.00 L 677.00 143.03 L 719.00 156.06 L 762.00 167.05 L 861.00 184.73 L 862.59 188.00 L 864.58 214.00 L 866.79 276.00 L 866.67 317.00 L 862.60 382.00 L 855.56 440.00 L 846.47 490.00 L 832.58 546.00 L 818.52 589.00 L 800.56 633.00 L 778.58 677.00 L 754.55 717.00 L 727.55 755.00 L 696.57 792.00 L 659.00 830.61 L 625.00 860.48 L 591.00 886.55 L 554.00 911.48 L 513.00 935.40 Z
M 513.70 899.00 L 542.85 882.00 L 583.00 855.03 L 619.00 826.08 L 649.00 798.01 L 682.06 762.00 L 715.08 720.00 L 740.00 681.98 L 757.04 652.00 L 777.08 610.00 L 793.00 569.58 L 805.13 532.00 L 817.08 484.00 L 826.02 436.00 L 832.11 387.00 L 836.10 329.00 L 836.28 277.00 L 836.10 241.00 L 834.00 208.93 L 788.00 202.61 L 749.00 194.55 L 703.00 182.63 L 659.00 168.59 L 615.00 151.47 L 576.00 133.45 L 537.00 112.52 L 512.00 96.95 L 472.00 120.29 L 428.00 142.54 L 364.00 168.56 L 320.00 182.57 L 274.00 194.57 L 235.00 202.56 L 189.00 209.05 L 186.82 241.00 L 186.69 292.00 L 187.87 350.00 L 191.85 396.00 L 196.96 436.00 L 207.88 493.00 L 217.91 532.00 L 231.98 575.00 L 249.00 616.89 L 266.00 651.87 L 283.00 681.94 L 307.94 720.00 L 340.94 762.00 L 374.00 797.94 L 404.00 826.02 L 440.10 855.00 L 485.10 885.00 L 509.35 899.00 L 513.70 899.00 Z
M 666.00 622.52 L 655.00 622.50 L 611.00 608.86 L 586.00 608.57 L 570.83 598.00 L 561.00 594.88 L 472.00 594.68 L 462.00 594.86 L 454.26 597.00 L 437.00 608.47 L 412.00 608.89 L 372.00 621.43 L 360.00 622.92 L 351.00 619.52 L 316.17 596.00 L 313.32 591.00 L 313.39 584.00 L 317.00 578.24 L 323.00 575.37 L 331.00 576.64 L 364.00 597.13 L 407.00 584.50 L 434.00 584.14 L 434.64 583.00 L 427.00 561.85 L 357.00 562.47 L 346.00 557.56 L 329.00 546.51 L 318.00 538.69 L 310.47 530.00 L 309.76 525.00 L 312.22 518.00 L 317.00 514.42 L 324.00 514.21 L 362.00 538.02 L 423.00 536.80 L 424.13 536.00 L 423.33 522.00 L 424.68 505.00 L 424.00 503.75 L 390.00 503.69 L 376.00 501.51 L 357.00 494.61 L 343.00 485.68 L 330.39 473.00 L 320.57 456.00 L 315.31 437.00 L 314.00 416.28 L 301.00 412.69 L 288.00 405.45 L 273.40 391.00 L 266.34 380.00 L 260.38 366.00 L 256.44 349.00 L 255.20 330.00 L 256.44 310.00 L 260.58 292.00 L 266.69 276.00 L 275.30 261.00 L 287.00 246.68 L 305.00 231.49 L 320.00 223.40 L 342.00 216.30 L 350.00 215.26 L 352.47 217.00 L 351.77 325.00 L 375.38 294.00 L 379.00 291.45 L 384.00 291.66 L 389.42 298.00 L 394.50 314.00 L 395.74 342.00 L 390.48 368.00 L 379.63 389.00 L 361.00 407.63 L 341.00 416.26 L 340.94 426.00 L 343.94 440.00 L 348.91 451.00 L 354.91 459.00 L 363.31 466.00 L 372.37 471.00 L 381.04 474.00 L 394.46 476.00 L 427.00 476.17 L 429.10 475.00 L 434.33 451.00 L 443.42 427.00 L 456.44 403.00 L 472.18 383.00 L 472.18 380.00 L 462.05 344.00 L 453.00 324.10 L 446.01 313.00 L 434.06 298.00 L 419.96 285.00 L 407.00 276.00 L 381.25 262.00 L 378.22 255.00 L 381.27 247.00 L 385.00 244.29 L 391.00 243.49 L 407.00 249.33 L 428.00 262.34 L 450.77 283.00 L 464.47 300.00 L 476.56 320.00 L 484.48 338.00 L 493.00 364.23 L 504.00 352.27 L 511.00 350.16 L 518.00 351.49 L 530.00 364.05 L 538.50 338.00 L 546.43 320.00 L 558.55 300.00 L 572.24 283.00 L 595.00 262.39 L 614.00 250.40 L 627.00 244.45 L 634.00 243.40 L 640.00 245.30 L 644.78 253.00 L 644.68 257.00 L 642.00 261.82 L 616.14 276.00 L 603.02 285.00 L 589.00 297.90 L 576.99 313.00 L 569.00 326.04 L 560.92 344.00 L 550.47 382.00 L 566.59 403.00 L 578.66 425.00 L 588.64 451.00 L 594.02 475.00 L 596.00 476.17 L 624.00 476.11 L 642.00 474.00 L 661.00 465.20 L 668.08 459.00 L 674.08 451.00 L 681.10 432.00 L 681.85 416.00 L 671.00 412.62 L 659.00 405.53 L 646.33 393.00 L 638.35 381.00 L 630.36 361.00 L 627.32 343.00 L 627.33 322.00 L 630.47 306.00 L 634.64 296.00 L 640.00 291.31 L 644.00 291.41 L 647.62 294.00 L 671.14 325.00 L 670.59 217.00 L 672.00 215.47 L 677.00 215.45 L 701.00 222.46 L 718.00 231.44 L 734.00 244.66 L 745.60 258.00 L 756.31 276.00 L 762.48 292.00 L 766.56 310.00 L 767.74 329.00 L 766.58 349.00 L 762.63 366.00 L 756.62 380.00 L 749.59 391.00 L 736.00 404.61 L 722.00 412.62 L 709.00 416.20 L 707.64 437.00 L 702.39 456.00 L 692.61 473.00 L 680.00 485.63 L 666.00 494.59 L 647.00 501.52 L 633.00 503.70 L 598.59 504.00 L 598.85 535.00 L 600.00 536.72 L 661.00 538.05 L 698.00 514.35 L 706.00 514.40 L 711.60 519.00 L 713.33 526.00 L 712.54 530.00 L 708.94 535.00 L 694.00 546.44 L 669.00 561.52 L 664.00 562.69 L 597.00 561.70 L 595.00 563.77 L 588.70 584.00 L 616.00 584.47 L 658.00 597.11 L 695.00 575.42 L 700.00 575.33 L 706.00 578.17 L 709.77 585.00 L 709.68 591.00 L 707.75 595.00 L 692.00 606.68 L 666.00 622.52 Z
M 564.00 653.34 L 459.00 653.40 L 452.00 649.69 L 445.39 641.00 L 443.29 633.00 L 444.33 620.00 L 450.00 611.24 L 460.00 606.26 L 564.00 606.45 L 572.00 610.37 L 575.51 614.00 L 578.64 620.00 L 579.84 629.00 L 578.71 638.00 L 575.38 645.00 L 570.00 650.44 L 564.00 653.34 Z
M 546.00 714.19 L 480.00 714.67 L 470.00 712.63 L 462.00 707.49 L 455.49 698.00 L 453.29 690.00 L 454.32 677.00 L 460.00 669.35 L 468.00 666.27 L 553.00 666.20 L 560.00 667.49 L 565.68 672.00 L 569.34 679.00 L 568.68 695.00 L 565.46 702.00 L 560.00 708.41 L 553.00 712.61 L 546.00 714.19 Z
M 519.00 776.45 L 505.00 776.66 L 499.00 774.64 L 489.30 767.00 L 483.00 757.30 L 476.02 767.00 L 467.00 773.61 L 457.00 775.75 L 446.00 773.56 L 438.34 768.00 L 433.40 761.00 L 431.27 754.00 L 432.42 742.00 L 441.33 728.00 L 455.00 717.29 L 468.00 723.16 L 485.00 724.28 L 550.00 724.11 L 569.00 717.44 L 580.71 727.00 L 587.59 736.00 L 591.64 746.00 L 591.58 755.00 L 586.43 766.00 L 579.00 772.43 L 570.00 775.60 L 558.00 774.43 L 547.00 767.14 L 540.00 757.37 L 530.00 770.64 L 519.00 776.45 Z" fill="url(#agentvouch-orange)" fill-rule="evenodd" clip-rule="evenodd"/>
</svg>
